<svg xmlns="http://www.w3.org/2000/svg" viewBox="0 0 480 360" role="img" aria-label="Empty calendar illustration">
  <defs>
    <linearGradient id="bg4" x1="0" y1="0" x2="1" y2="1">
      <stop offset="0" stop-color="#eff6ff" stop-opacity="0.95"/>
      <stop offset="1" stop-color="#fefce8" stop-opacity="0.95"/>
    </linearGradient>
    <filter id="shadow4" x="-20%" y="-20%" width="140%" height="140%">
      <feDropShadow dx="0" dy="10" stdDeviation="12" flood-color="#0f172a" flood-opacity="0.12"/>
    </filter>
  </defs>
  <rect x="36" y="34" width="408" height="292" rx="28" fill="url(#bg4)" />
  <g filter="url(#shadow4)">
    <rect x="122" y="84" width="236" height="192" rx="18" fill="#ffffff" opacity="0.92" stroke="#cbd5e1"/>
    <rect x="122" y="84" width="236" height="40" rx="18" fill="#e0f2fe" opacity="0.9"/>
    <rect x="160" y="98" width="62" height="12" rx="6" fill="#93c5fd"/>
    <rect x="246" y="98" width="62" height="12" rx="6" fill="#93c5fd"/>
    <g fill="#e2e8f0">
      <circle cx="160" cy="154" r="10"/>
      <circle cx="212" cy="154" r="10"/>
      <circle cx="264" cy="154" r="10"/>
      <circle cx="316" cy="154" r="10"/>
      <circle cx="160" cy="206" r="10"/>
      <circle cx="212" cy="206" r="10"/>
      <circle cx="264" cy="206" r="10"/>
      <circle cx="316" cy="206" r="10"/>
    </g>
    <path d="M188 240h104" stroke="#22c55e" stroke-width="6" stroke-linecap="round" opacity="0.55"/>
  </g>
  <circle cx="92" cy="100" r="12" fill="#f59e0b" opacity="0.22"/>
  <circle cx="388" cy="270" r="14" fill="#3b82f6" opacity="0.18"/>
</svg>

