<svg xmlns="http://www.w3.org/2000/svg" viewBox="0 0 480 360" role="img" aria-label="No habits illustration">
  <defs>
    <linearGradient id="bg3" x1="0" y1="0" x2="1" y2="1">
      <stop offset="0" stop-color="#ecfeff" stop-opacity="0.95"/>
      <stop offset="1" stop-color="#f0fdf4" stop-opacity="0.95"/>
    </linearGradient>
    <filter id="shadow3" x="-20%" y="-20%" width="140%" height="140%">
      <feDropShadow dx="0" dy="10" stdDeviation="12" flood-color="#0f172a" flood-opacity="0.12"/>
    </filter>
  </defs>
  <rect x="36" y="34" width="408" height="292" rx="28" fill="url(#bg3)" />
  <g filter="url(#shadow3)">
    <rect x="142" y="88" width="196" height="184" rx="18" fill="#ffffff" opacity="0.92" stroke="#cbd5e1"/>
    <rect x="170" y="116" width="140" height="12" rx="6" fill="#e2e8f0"/>
    <g transform="translate(170,148)">
      <rect x="0" y="0" width="22" height="22" rx="6" fill="#22c55e" opacity="0.18"/>
      <path d="M6 12l4 4 8-10" fill="none" stroke="#16a34a" stroke-width="2.4" stroke-linecap="round" stroke-linejoin="round"/>
      <rect x="34" y="5" width="106" height="12" rx="6" fill="#dbeafe"/>
    </g>
    <g transform="translate(170,184)">
      <rect x="0" y="0" width="22" height="22" rx="6" fill="#60a5fa" opacity="0.18"/>
      <rect x="34" y="5" width="122" height="12" rx="6" fill="#e2e8f0"/>
    </g>
    <g transform="translate(170,220)">
      <rect x="0" y="0" width="22" height="22" rx="6" fill="#f59e0b" opacity="0.18"/>
      <rect x="34" y="5" width="92" height="12" rx="6" fill="#e2e8f0"/>
    </g>
  </g>
  <circle cx="96" cy="266" r="14" fill="#22c55e" opacity="0.22"/>
  <path d="M374 118c-22 10-38 28-46 54" fill="none" stroke="#94a3b8" stroke-width="3" stroke-linecap="round" opacity="0.5"/>
</svg>

