<svg xmlns="http://www.w3.org/2000/svg" viewBox="0 0 480 360" role="img" aria-label="No goals illustration">
  <defs>
    <linearGradient id="bg2" x1="0" y1="0" x2="1" y2="1">
      <stop offset="0" stop-color="#fdf2f8" stop-opacity="0.95"/>
      <stop offset="1" stop-color="#eff6ff" stop-opacity="0.95"/>
    </linearGradient>
    <filter id="shadow2" x="-20%" y="-20%" width="140%" height="140%">
      <feDropShadow dx="0" dy="10" stdDeviation="12" flood-color="#0f172a" flood-opacity="0.12"/>
    </filter>
  </defs>
  <rect x="36" y="34" width="408" height="292" rx="28" fill="url(#bg2)" />
  <g filter="url(#shadow2)">
    <path d="M130 254l72-112 54 70 42-56 72 98H130z" fill="#ffffff" opacity="0.9" stroke="#cbd5e1"/>
    <path d="M242 116l10 24 26 2-20 16 6 26-22-12-22 12 6-26-20-16 26-2 10-24z" fill="#fbbf24" opacity="0.9"/>
    <path d="M332 128v86" stroke="#94a3b8" stroke-width="4" stroke-linecap="round"/>
    <path d="M332 132l58 22-58 22z" fill="#60a5fa" opacity="0.9"/>
  </g>
  <circle cx="98" cy="98" r="14" fill="#a855f7" opacity="0.25"/>
  <circle cx="388" cy="274" r="16" fill="#22c55e" opacity="0.22"/>
</svg>

