<svg xmlns="http://www.w3.org/2000/svg" viewBox="0 0 480 360" role="img" aria-label="No tasks illustration">
  <defs>
    <linearGradient id="bg" x1="0" y1="0" x2="1" y2="1">
      <stop offset="0" stop-color="#e0f2fe" stop-opacity="0.9"/>
      <stop offset="1" stop-color="#f0fdf4" stop-opacity="0.9"/>
    </linearGradient>
    <linearGradient id="card" x1="0" y1="0" x2="1" y2="1">
      <stop offset="0" stop-color="#ffffff" stop-opacity="0.95"/>
      <stop offset="1" stop-color="#ffffff" stop-opacity="0.75"/>
    </linearGradient>
    <filter id="shadow" x="-20%" y="-20%" width="140%" height="140%">
      <feDropShadow dx="0" dy="10" stdDeviation="12" flood-color="#0f172a" flood-opacity="0.12"/>
    </filter>
  </defs>
  <rect x="36" y="34" width="408" height="292" rx="28" fill="url(#bg)" />
  <g filter="url(#shadow)">
    <rect x="110" y="86" width="260" height="188" rx="18" fill="url(#card)" stroke="#cbd5e1" />
    <rect x="140" y="122" width="200" height="14" rx="7" fill="#e2e8f0"/>
    <rect x="140" y="152" width="160" height="12" rx="6" fill="#e2e8f0"/>
    <rect x="140" y="176" width="188" height="12" rx="6" fill="#e2e8f0"/>
    <g transform="translate(140,208)">
      <circle cx="10" cy="10" r="10" fill="#22c55e" opacity="0.18"/>
      <path d="M6.4 10.2l2.3 2.3 5-5" fill="none" stroke="#16a34a" stroke-width="2.4" stroke-linecap="round" stroke-linejoin="round"/>
      <rect x="30" y="4" width="164" height="12" rx="6" fill="#dbeafe"/>
    </g>
  </g>
  <circle cx="388" cy="98" r="10" fill="#60a5fa" opacity="0.45"/>
  <circle cx="92" cy="268" r="12" fill="#34d399" opacity="0.35"/>
  <path d="M72 120c18-26 42-38 70-36" fill="none" stroke="#94a3b8" stroke-width="3" stroke-linecap="round" opacity="0.5"/>
</svg>

